# xmcd
#
# Track frame offsets:
#	150
#	22410
#	49303
#	81398
#	105796
#	132178
#	158340
#	179679
#	202286
#	215734
#	234466
#	253291
#	270411
#	282616
#
# Disc length: 4107 seconds
#
# Revision: 2
# Processed by: cddbd v1.5.2PL0 Copyright (c) Steve Scherf et al.
# Submitted via: audiograbber 1.83.01
#
DISCID=d810090e
DTITLE=SPECIAL DREAMS - VOLUME 5
DYEAR=1900
DGENRE=R&B
TTITLE0=ALL HUDSON - LOST INSIDE OF YOU
TTITLE1=JIMMY CASTOR BUNCH - I DON'T WANT TO LOSE YOU
TTITLE2=MAZE - HAPPY FEELINGS
TTITLE3=O' BRIAN - MARIA
TTITLE4=CHIC - A WARM SUMMER NIGHT
TTITLE5=MARVIN SEASE - LET'S GET MARRIED TODAY
TTITLE6=BOBBY CALDWLL - WHAT YOU WON'T DO FOR LOVE
TTITLE7=RAY, G. AND BROWN - CELEBRATE OUT OF LOVE
TTITLE8=CAMEO - I CANT HELP FALLING LOVE
TTITLE9=CYNTIA HINDS - LET'S FALL IN LOVE AGAIN
TTITLE10=CARL CARLTON - THIS FEELINGS THE EXTRA
TTITLE11=ANGEE GRIFFIN - TOBY
TTITLE12=LULU - TO SIR WITH LOVE
TTITLE13=ROUND STRIP - LOST INSIDE OF YOU
EXTD=
EXTT0=
EXTT1=
EXTT2=
EXTT3=
EXTT4=
EXTT5=
EXTT6=
EXTT7=
EXTT8=
EXTT9=
EXTT10=
EXTT11=
EXTT12=
EXTT13=
PLAYORDER=
